<svg id="ei5QjOqw3IW1" xmlns="http://www.w3.org/2000/svg" xmlns:xlink="http://www.w3.org/1999/xlink" viewBox="0 0 256 256" shape-rendering="geometricPrecision" text-rendering="geometricPrecision"><g transform="matrix(2.81 0 0 2.81 1.40659 1.40659)"><path d="M83.46,17.68h-21.7v-8.435c0-2.168-1.765-3.933-3.934-3.933h-25.653c-2.169,0-3.933,1.764-3.933,3.933v8.435h-21.7C2.934,17.68,0,20.614,0,24.22v32.87c0,2.273,1.154,4.283,2.933,5.457v16.979c0,2.846,2.315,5.161,5.162,5.161h73.811c2.846,0,5.161-2.315,5.161-5.161v-16.979C88.846,61.373,90,59.363,90,57.09v-32.87c0-3.606-2.934-6.54-6.54-6.54ZM30.24,9.245c0-1.065.867-1.933,1.933-1.933h25.653c1.066,0,1.934.867,1.934,1.933v8.435h-3.642v-4.758c0-1.06-.862-1.923-1.923-1.923h-18.39c-1.061,0-1.923.863-1.923,1.923v4.758h-3.642v-8.435ZM54.118,17.68h-18.237v-4.68h18.237v4.68ZM85.066,79.526c0,1.743-1.418,3.161-3.161,3.161h-73.81c-1.743,0-3.162-1.418-3.162-3.161v-16.102c.306.077.618.139.94.173L39.56,67.048v.795c0,2.999,2.44,5.439,5.439,5.439s5.439-2.44,5.439-5.439v-.795l33.688-3.451c.322-.033.634-.096.939-.172v16.101ZM41.561,67.843v-6.704c0-1.896,1.543-3.439,3.439-3.439s3.439,1.543,3.439,3.439v6.704c0,1.896-1.543,3.439-3.439,3.439s-3.439-1.543-3.439-3.439ZM88,57.09c0,2.337-1.753,4.278-4.077,4.517L50.44,65.037v-3.898c0-2.999-2.44-5.439-5.439-5.439-3,0-5.439,2.44-5.439,5.439v3.898L6.079,61.607C3.753,61.368,2,59.427,2,57.09v-32.87c0-2.503,2.037-4.54,4.54-4.54h22.7h5.641h20.237h5.642h22.7c2.503,0,4.54,2.037,4.54,4.54v32.87Z" fill="#00bfff" stroke-miterlimit="10"/></g></svg>
